<svg xmlns="http://www.w3.org/2000/svg" version="1.0" width="500.000000pt" height="106.000000pt" viewBox="0 0 500.000000 106.000000" preserveAspectRatio="xMidYMid meet">

<g transform="translate(0.000000,106.000000) scale(0.100000,-0.100000)" fill="#ffffff" stroke="none">
<path d="M4561 1019 c-74 -14 -187 -74 -248 -131 -268 -252 -214 -618 99 -667 62 -10 93 -8 227 18 29 6 77 11 105 11 87 0 98 16 140 211 20 91 36 169 36 172 0 4 -80 7 -179 7 -192 0 -206 -4 -199 -52 3 -21 8 -23 82 -26 l79 -3 -7 -54 c-3 -30 -14 -79 -24 -108 -21 -65 -58 -87 -147 -87 -74 0 -119 25 -142 78 -22 51 -19 166 7 267 41 162 111 258 195 270 70 11 109 0 187 -49 40 -26 77 -46 83 -46 7 0 26 7 42 15 23 12 33 26 42 60 6 24 11 46 11 48 0 10 -107 49 -169 63 -73 15 -153 16 -220 3z m252 -121 c44 -27 65 -44 55 -46 -9 -2 -43 14 -75 34 -32 21 -74 44 -93 51 l-35 14 39 -5 c21 -3 70 -24 109 -48z m-491 -44 c-150 -167 -171 -381 -53 -516 39 -45 99 -75 188 -93 l68 -15 -73 4 c-281 13 -383 301 -198 560 38 53 99 115 114 116 2 0 -19 -25 -46 -56z m271 -254 c4 -14 0 -20 -12 -20 -23 0 -31 9 -24 26 8 21 30 17 36 -6z m157 -51 c0 -52 -31 -167 -52 -194 -11 -14 -22 -24 -24 -22 -2 2 5 28 15 58 11 30 22 84 26 122 5 47 11 67 21 67 9 0 14 -11 14 -31z" fill="#ffffff"/>
<path d="M109 993 c-15 -2 -36 -14 -48 -27 l-22 -23 76 -344 c42 -189 80 -354 85 -366 8 -19 17 -23 52 -23 36 0 50 7 85 38 47 42 473 692 473 722 0 10 -6 20 -14 23 -23 9 -90 -11 -108 -32 -9 -12 -78 -118 -155 -236 -76 -118 -140 -215 -143 -215 -4 0 -30 107 -58 237 -29 131 -58 241 -65 245 -12 8 -110 8 -158 1z m-9 -42 c0 -17 113 -528 142 -646 9 -35 20 -53 38 -62 24 -12 23 -13 -17 -13 -31 0 -43 4 -47 18 -3 9 -39 170 -81 356 -56 255 -72 343 -64 353 16 19 29 16 29 -6z m620 -1 c-9 -17 -288 -450 -296 -459 -2 -2 -7 -2 -10 1 -6 7 282 459 300 470 17 11 18 10 6 -12z" fill="#ffffff"/>
<path d="M2412 993 c-7 -2 -16 -12 -21 -22 -8 -14 -201 -693 -201 -706 0 -3 11 -12 24 -21 23 -15 27 -14 69 11 l45 26 62 192 c34 106 65 196 69 200 4 4 29 -88 55 -205 56 -254 62 -263 147 -216 32 19 62 59 170 230 72 114 135 210 140 213 5 4 6 -12 3 -37 -3 -24 -13 -121 -23 -217 -17 -169 -17 -175 1 -193 35 -35 149 -17 191 30 18 20 115 677 104 705 -5 15 -20 17 -107 17 l-100 0 -27 -38 c-16 -21 -84 -127 -153 -235 -94 -148 -127 -192 -132 -179 -4 9 -26 105 -48 212 -22 107 -45 205 -50 218 -9 21 -15 22 -107 21 -54 0 -104 -3 -111 -6z m-68 -343 c-52 -184 -93 -348 -92 -364 3 -32 -13 -44 -30 -23 -9 10 -6 34 12 98 13 46 57 201 96 344 42 151 79 265 88 272 8 7 17 12 18 10 1 -1 -40 -153 -92 -337z m716 326 c0 -9 -284 -451 -294 -458 -6 -4 -12 -5 -14 -3 -2 2 47 83 109 182 174 275 179 283 189 283 6 0 10 -2 10 -4z m-35 -245 c3 -6 -4 -107 -17 -226 -17 -171 -19 -221 -10 -236 10 -16 9 -19 -7 -19 -38 0 -39 18 -15 244 13 121 23 222 22 225 -2 22 16 29 27 12z m-511 -18 c3 -10 26 -112 52 -228 25 -116 50 -216 56 -222 8 -10 5 -13 -11 -13 -13 0 -25 9 -31 23 -8 20 -100 432 -100 450 0 15 29 6 34 -10z" fill="#ffffff"/>
<path d="M1035 970 c-23 -25 -14 -46 24 -55 17 -4 31 -11 31 -15 0 -5 -32 -161 -70 -347 -82 -395 -88 -410 -177 -428 -64 -12 -82 -27 -62 -51 20 -24 159 -16 220 14 62 30 126 87 149 132 22 43 173 737 166 757 -4 10 -39 13 -134 13 -115 0 -131 -2 -147 -20z m45 -20 c11 -11 29 -20 40 -20 13 0 20 -7 20 -20 0 -10 -31 -168 -69 -350 -71 -337 -87 -387 -134 -412 -21 -10 -21 -10 -5 9 10 10 24 37 31 58 23 64 149 684 143 700 -3 8 -13 15 -23 15 -26 0 -47 16 -39 29 10 15 13 14 36 -9z m-250 -855 c10 -13 9 -15 -8 -15 -22 0 -36 13 -25 24 10 10 20 7 33 -9z" fill="#ffffff"/>
<path d="M3758 978 c-9 -7 -116 -164 -239 -348 -234 -351 -254 -391 -200 -398 44 -7 90 29 138 106 l45 73 141 -3 141 -3 21 -85 20 -85 69 -3 c74 -3 114 8 142 39 16 18 12 36 -66 356 -45 186 -87 344 -92 351 -6 6 -32 12 -57 12 -26 0 -54 -6 -63 -12z m22 -23 c0 -3 -99 -154 -221 -336 -185 -277 -220 -334 -215 -355 6 -21 3 -25 -11 -22 -10 2 -19 11 -21 20 -2 9 99 170 224 357 198 297 244 360 244 336z m-17 -242 c40 -143 49 -195 39 -205 -7 -7 -13 -10 -16 -7 -2 2 -17 55 -34 117 -27 104 -28 112 -11 112 9 0 20 -8 22 -17z m-24 -120 c11 -45 21 -85 21 -88 0 -3 -39 -4 -87 -3 -73 3 -88 6 -87 19 1 9 27 53 59 98 40 57 60 79 65 70 4 -8 17 -51 29 -96z m86 -161 c6 -4 19 -43 29 -87 10 -44 25 -86 34 -92 14 -11 12 -13 -10 -13 -33 0 -36 4 -58 93 -9 40 -21 80 -25 90 -7 18 10 24 30 9z" fill="#ffffff"/>
<path d="M1634 690 c-60 -12 -137 -54 -168 -90 -19 -23 -26 -43 -26 -74 0 -64 28 -84 167 -122 70 -18 86 -32 81 -66 -3 -20 -9 -23 -53 -26 -40 -2 -63 3 -108 26 l-58 29 -40 -29 c-24 -17 -39 -36 -37 -45 4 -22 102 -61 171 -69 105 -12 227 49 273 137 43 83 0 131 -145 164 -78 18 -118 43 -108 68 11 30 73 32 153 4 l74 -25 30 26 c43 38 40 68 -7 81 -56 16 -152 21 -199 11z m160 -65 c28 -12 36 -19 28 -27 -8 -8 -27 -5 -67 10 -31 12 -76 22 -98 22 -32 0 -38 3 -27 11 20 14 116 5 164 -16z m-312 -69 c-3 -37 0 -46 24 -65 15 -12 52 -28 83 -37 141 -38 166 -58 139 -106 l-13 -23 -3 22 c-5 34 -44 59 -122 78 -82 20 -134 51 -138 83 -4 25 16 92 26 92 4 0 6 -20 4 -44z m28 -273 c33 -11 84 -18 128 -18 66 0 71 -1 45 -12 -43 -19 -137 -15 -200 7 -66 23 -78 33 -69 56 6 15 8 15 24 1 9 -8 42 -23 72 -34z" fill="#ffffff"/>
</g>
</svg>